<svg width="90" height="80" viewBox="0 0 90 80" fill="none" xmlns="http://www.w3.org/2000/svg">
<g id="Frame 427318206">
<path id="Vector" d="M34.595 0.562469C33.1714 1.22591 31.887 1.79442 30.6409 2.41096C24.4742 5.46395 21.2348 10.6514 20.3623 17.5718C19.5292 24.1765 19.5304 31.0901 19.513 37.9922C19.4793 51.5654 19.5327 65.1683 19.6046 78.778C19.6093 79.732 19.2566 80.0043 18.2367 79.9951C12.215 79.9436 6.22587 79.97 0.19841 79.97C0.120673 79.8293 -0.00115202 79.6931 8.22689e-06 79.5993C0.179846 61.5102 -0.249444 43.2105 0.356203 25.2678C0.530239 20.1078 1.0976 15.1457 3.54571 11.0918C7.44529 4.63236 14.0691 1.23621 22.8394 0.251336C26.4895 -0.158169 30.3357 -0.0758097 34.595 0.561326V0.562469Z" fill="#FDFDFF"/>
<path id="Vector_2" d="M58.4193 0.555612C57.1535 1.12526 56.0733 1.59882 55.0094 2.09183C48.041 5.32326 44.6635 11.1296 43.9604 18.8827C43.0902 28.4866 43.2654 38.4612 43.2526 48.3694C43.2387 58.4743 43.3072 68.6068 43.3826 78.7414C43.3895 79.6474 43.1262 80.0123 42.0529 79.9997C36.2854 79.9322 30.5526 79.9539 24.8245 79.9826C23.9787 79.9871 23.7385 79.8693 23.7443 79.0228C23.8812 61.1155 23.6561 43.0836 24.0669 25.2712C24.1852 20.1352 24.8686 15.2441 27.2482 11.2028C31.1385 4.59805 37.832 1.13212 46.8111 0.238759C50.416 -0.120416 54.2007 -0.00488612 58.4193 0.554467V0.555612Z" fill="#FDFDFF"/>
<path id="Vector_3" d="M70.7399 79.9654C70.733 72.5451 70.7504 65.3341 70.7132 58.1049C70.6587 47.7025 70.871 37.3882 70.4835 26.8749C70.3582 23.465 69.8837 19.9705 68.3255 16.2747C66.4923 11.9257 63.2761 8.29847 58.8382 5.41706C57.3681 4.46307 57.7533 4.24802 58.4367 3.77103C63.7367 0.0728955 75.9599 1.42266 84.4006 13.2983C88.0113 18.3783 89.2331 23.3404 89.6507 28.227C90.268 35.4551 89.8712 42.3526 89.9083 49.3909C89.9605 59.2453 89.8886 69.0586 89.8642 78.8878C89.8631 79.4049 90.0591 79.9905 89.175 79.9848C83.0814 79.9471 77.011 79.9654 70.7388 79.9654H70.7399Z" fill="#FDFDFF"/>
<path id="Vector_4" d="M47.5293 79.9677C47.5061 75.0113 47.4562 70.2391 47.4655 65.4863C47.4945 51.7575 47.0629 37.8698 47.5455 24.2978C47.7462 18.67 48.6628 13.383 51.6528 9.17927C52.4615 8.04226 53.4384 7.04709 54.4478 6.0748C54.8887 5.65043 55.2681 5.69389 56.0176 6.23609C62.4164 10.8642 65.6604 16.2896 66.1454 22.1862C66.722 29.1981 66.4679 35.9515 66.5004 42.793C66.5573 54.8334 66.5224 66.8429 66.57 78.881C66.5735 79.7149 66.2904 80.0009 65.361 79.994C59.4751 79.9482 53.6171 79.9711 47.5293 79.9711V79.9677Z" fill="#FDFDFF"/>
</g>
</svg>
